<?xml version="1.0" encoding="UTF-8" standalone="no"?>
<!DOCTYPE svg PUBLIC "-//W3C//DTD SVG 1.1//EN"
 "http://www.w3.org/Graphics/SVG/1.1/DTD/svg11.dtd">
<!-- Generated by graphviz version 2.40.1 (20161225.0304)
 -->
<!-- Title: dependencies Pages: 1 -->
<svg width="2364pt" height="284pt"
 viewBox="0.00 0.00 2364.00 284.00" xmlns="http://www.w3.org/2000/svg" xmlns:xlink="http://www.w3.org/1999/xlink">
<g id="graph0" class="graph" transform="scale(1 1) rotate(0) translate(4 280)">
<title>dependencies</title>
<polygon fill="#ffffff" stroke="transparent" points="-4,4 -4,-280 2360,-280 2360,4 -4,4"/>
<text text-anchor="start" x="1157.0091" y="-42.4" font-family="sans-serif" font-weight="bold" font-size="14.00" fill="#000000">Legend</text>
<polygon fill="#ffffb3" stroke="transparent" points="944,-10 944,-30 964,-30 964,-10 944,-10"/>
<text text-anchor="start" x="967.629" y="-15.4" font-family="sans-serif" font-size="14.00" fill="#000000"> &#160;Declarations</text>
<polygon fill="#8dd3c7" stroke="transparent" points="1057,-10 1057,-30 1077,-30 1077,-10 1057,-10"/>
<text text-anchor="start" x="1080.7251" y="-15.4" font-family="sans-serif" font-size="14.00" fill="#000000"> &#160;Module</text>
<polygon fill="#80b1d3" stroke="transparent" points="1143,-10 1143,-30 1163,-30 1163,-10 1143,-10"/>
<text text-anchor="start" x="1166.7812" y="-15.4" font-family="sans-serif" font-size="14.00" fill="#000000"> &#160;Bootstrap</text>
<polygon fill="#fdb462" stroke="transparent" points="1240,-10 1240,-30 1260,-30 1260,-10 1240,-10"/>
<text text-anchor="start" x="1263.6732" y="-15.4" font-family="sans-serif" font-size="14.00" fill="#000000"> &#160;Providers</text>
<polygon fill="#fb8072" stroke="transparent" points="1336,-10 1336,-30 1356,-30 1356,-10 1336,-10"/>
<text text-anchor="start" x="1359.7258" y="-15.4" font-family="sans-serif" font-size="14.00" fill="#000000"> &#160;Exports</text>
<g id="clust1" class="cluster">
<title>cluster_AppModule</title>
<polygon fill="none" stroke="#000000" stroke-dasharray="1,5" points="8,-70 8,-268 2348,-268 2348,-70 8,-70"/>
</g>
<g id="clust2" class="cluster">
<title>cluster_AppModule_declarations</title>
<polygon fill="none" stroke="#000000" points="310,-78 310,-130 2340,-130 2340,-78 310,-78"/>
</g>
<g id="clust15" class="cluster">
<title>cluster_AppModule_imports</title>
<polygon fill="none" stroke="#000000" points="158,-78 158,-130 302,-130 302,-78 158,-78"/>
</g>
<g id="clust17" class="cluster">
<title>cluster_AppModule_bootstrap</title>
<polygon fill="none" stroke="#000000" points="1036,-208 1036,-260 1160,-260 1160,-208 1036,-208"/>
</g>
<g id="clust18" class="cluster">
<title>cluster_AppModule_providers</title>
<polygon fill="none" stroke="#000000" points="16,-78 16,-130 150,-130 150,-78 16,-78"/>
</g>
<!-- AppComponent -->
<g id="node1" class="node">
<title>AppComponent</title>
<polygon fill="#ffffb3" stroke="#000000" points="2331.9399,-122 2226.0601,-122 2226.0601,-86 2331.9399,-86 2331.9399,-122"/>
<text text-anchor="middle" x="2279" y="-99.8" font-family="Times,serif" font-size="14.00" fill="#000000">AppComponent</text>
</g>
<!-- AppModule -->
<g id="node13" class="node">
<title>AppModule</title>
<polygon fill="#8dd3c7" stroke="#000000" points="1139.6571,-187 1136.6571,-191 1115.6571,-191 1112.6571,-187 1056.3429,-187 1056.3429,-151 1139.6571,-151 1139.6571,-187"/>
<text text-anchor="middle" x="1098" y="-164.8" font-family="Times,serif" font-size="14.00" fill="#000000">AppModule</text>
</g>
<!-- AppComponent&#45;&gt;AppModule -->
<g id="edge1" class="edge">
<title>AppComponent&#45;&gt;AppModule</title>
<path fill="none" stroke="#000000" d="M2279,-122.0908C2279,-145.1328 2279,-182 2279,-182 2279,-182 1149.6855,-182 1149.6855,-182"/>
<polygon fill="#000000" stroke="#000000" points="1149.6856,-178.5001 1139.6855,-182 1149.6855,-185.5001 1149.6856,-178.5001"/>
</g>
<!-- CompanyDashboardComponent -->
<g id="node2" class="node">
<title>CompanyDashboardComponent</title>
<polygon fill="#ffffb3" stroke="#000000" points="2208.4156,-122 2011.5844,-122 2011.5844,-86 2208.4156,-86 2208.4156,-122"/>
<text text-anchor="middle" x="2110" y="-99.8" font-family="Times,serif" font-size="14.00" fill="#000000">CompanyDashboardComponent</text>
</g>
<!-- CompanyDashboardComponent&#45;&gt;AppModule -->
<g id="edge2" class="edge">
<title>CompanyDashboardComponent&#45;&gt;AppModule</title>
<path fill="none" stroke="#000000" d="M2110,-122.0449C2110,-143.6623 2110,-177 2110,-177 2110,-177 1149.8766,-177 1149.8766,-177"/>
<polygon fill="#000000" stroke="#000000" points="1149.8766,-173.5001 1139.8766,-177 1149.8765,-180.5001 1149.8766,-173.5001"/>
</g>
<!-- DashboardComponent -->
<g id="node3" class="node">
<title>DashboardComponent</title>
<polygon fill="#ffffb3" stroke="#000000" points="1993.9734,-122 1852.0266,-122 1852.0266,-86 1993.9734,-86 1993.9734,-122"/>
<text text-anchor="middle" x="1923" y="-99.8" font-family="Times,serif" font-size="14.00" fill="#000000">DashboardComponent</text>
</g>
<!-- DashboardComponent&#45;&gt;AppModule -->
<g id="edge3" class="edge">
<title>DashboardComponent&#45;&gt;AppModule</title>
<path fill="none" stroke="#000000" d="M1923,-122.2228C1923,-142.3652 1923,-172 1923,-172 1923,-172 1149.7612,-172 1149.7612,-172"/>
<polygon fill="#000000" stroke="#000000" points="1149.7613,-168.5001 1139.7612,-172 1149.7612,-175.5001 1149.7613,-168.5001"/>
</g>
<!-- EditProfileCompanyComponent -->
<g id="node4" class="node">
<title>EditProfileCompanyComponent</title>
<polygon fill="#ffffb3" stroke="#000000" points="1833.7077,-122 1636.2923,-122 1636.2923,-86 1833.7077,-86 1833.7077,-122"/>
<text text-anchor="middle" x="1735" y="-99.8" font-family="Times,serif" font-size="14.00" fill="#000000">EditProfileCompanyComponent</text>
</g>
<!-- EditProfileCompanyComponent&#45;&gt;AppModule -->
<g id="edge4" class="edge">
<title>EditProfileCompanyComponent&#45;&gt;AppModule</title>
<path fill="none" stroke="#000000" d="M1735,-122.2222C1735,-140.8285 1735,-167 1735,-167 1735,-167 1149.7953,-167 1149.7953,-167"/>
<polygon fill="#000000" stroke="#000000" points="1149.7954,-163.5001 1139.7953,-167 1149.7953,-170.5001 1149.7954,-163.5001"/>
</g>
<!-- EditprofileComponent -->
<g id="node5" class="node">
<title>EditprofileComponent</title>
<polygon fill="#ffffb3" stroke="#000000" points="1617.9832,-122 1476.0168,-122 1476.0168,-86 1617.9832,-86 1617.9832,-122"/>
<text text-anchor="middle" x="1547" y="-99.8" font-family="Times,serif" font-size="14.00" fill="#000000">EditprofileComponent</text>
</g>
<!-- EditprofileComponent&#45;&gt;AppModule -->
<g id="edge5" class="edge">
<title>EditprofileComponent&#45;&gt;AppModule</title>
<path fill="none" stroke="#000000" d="M1547,-122.0336C1547,-139.0597 1547,-162 1547,-162 1547,-162 1149.8376,-162 1149.8376,-162"/>
<polygon fill="#000000" stroke="#000000" points="1149.8377,-158.5001 1139.8376,-162 1149.8376,-165.5001 1149.8377,-158.5001"/>
</g>
<!-- ForgotPasswordComponent -->
<g id="node6" class="node">
<title>ForgotPasswordComponent</title>
<polygon fill="#ffffb3" stroke="#000000" points="1458.3201,-122 1285.6799,-122 1285.6799,-86 1458.3201,-86 1458.3201,-122"/>
<text text-anchor="middle" x="1372" y="-99.8" font-family="Times,serif" font-size="14.00" fill="#000000">ForgotPasswordComponent</text>
</g>
<!-- ForgotPasswordComponent&#45;&gt;AppModule -->
<g id="edge6" class="edge">
<title>ForgotPasswordComponent&#45;&gt;AppModule</title>
<path fill="none" stroke="#000000" d="M1372,-122.2396C1372,-137.5706 1372,-157 1372,-157 1372,-157 1149.913,-157 1149.913,-157"/>
<polygon fill="#000000" stroke="#000000" points="1149.913,-153.5001 1139.913,-157 1149.9129,-160.5001 1149.913,-153.5001"/>
</g>
<!-- SearchCompanyComponent -->
<g id="node7" class="node">
<title>SearchCompanyComponent</title>
<polygon fill="#ffffb3" stroke="#000000" points="1267.8613,-122 1094.1387,-122 1094.1387,-86 1267.8613,-86 1267.8613,-122"/>
<text text-anchor="middle" x="1181" y="-99.8" font-family="Times,serif" font-size="14.00" fill="#000000">SearchCompanyComponent</text>
</g>
<!-- SearchCompanyComponent&#45;&gt;AppModule -->
<g id="edge7" class="edge">
<title>SearchCompanyComponent&#45;&gt;AppModule</title>
<path fill="none" stroke="#000000" d="M1116.9488,-122.1061C1116.9488,-122.1061 1116.9488,-140.991 1116.9488,-140.991"/>
<polygon fill="#000000" stroke="#000000" points="1113.4489,-140.9909 1116.9488,-150.991 1120.4489,-140.991 1113.4489,-140.9909"/>
</g>
<!-- SearchComponent -->
<g id="node8" class="node">
<title>SearchComponent</title>
<polygon fill="#ffffb3" stroke="#000000" points="1075.9201,-122 956.0799,-122 956.0799,-86 1075.9201,-86 1075.9201,-122"/>
<text text-anchor="middle" x="1016" y="-99.8" font-family="Times,serif" font-size="14.00" fill="#000000">SearchComponent</text>
</g>
<!-- SearchComponent&#45;&gt;AppModule -->
<g id="edge8" class="edge">
<title>SearchComponent&#45;&gt;AppModule</title>
<path fill="none" stroke="#000000" d="M1065.9408,-122.1061C1065.9408,-122.1061 1065.9408,-140.991 1065.9408,-140.991"/>
<polygon fill="#000000" stroke="#000000" points="1062.4408,-140.9909 1065.9408,-150.991 1069.4408,-140.991 1062.4408,-140.9909"/>
</g>
<!-- SignInComponent -->
<g id="node9" class="node">
<title>SignInComponent</title>
<polygon fill="#ffffb3" stroke="#000000" points="938.1667,-122 819.8333,-122 819.8333,-86 938.1667,-86 938.1667,-122"/>
<text text-anchor="middle" x="879" y="-99.8" font-family="Times,serif" font-size="14.00" fill="#000000">SignInComponent</text>
</g>
<!-- SignInComponent&#45;&gt;AppModule -->
<g id="edge9" class="edge">
<title>SignInComponent&#45;&gt;AppModule</title>
<path fill="none" stroke="#000000" d="M879,-122.2396C879,-137.5706 879,-157 879,-157 879,-157 1046.2923,-157 1046.2923,-157"/>
<polygon fill="#000000" stroke="#000000" points="1046.2923,-160.5001 1056.2923,-157 1046.2923,-153.5001 1046.2923,-160.5001"/>
</g>
<!-- SignUpComponent -->
<g id="node10" class="node">
<title>SignUpComponent</title>
<polygon fill="#ffffb3" stroke="#000000" points="802.1123,-122 677.8877,-122 677.8877,-86 802.1123,-86 802.1123,-122"/>
<text text-anchor="middle" x="740" y="-99.8" font-family="Times,serif" font-size="14.00" fill="#000000">SignUpComponent</text>
</g>
<!-- SignUpComponent&#45;&gt;AppModule -->
<g id="edge10" class="edge">
<title>SignUpComponent&#45;&gt;AppModule</title>
<path fill="none" stroke="#000000" d="M740,-122.0336C740,-139.0597 740,-162 740,-162 740,-162 1046.2322,-162 1046.2322,-162"/>
<polygon fill="#000000" stroke="#000000" points="1046.2322,-165.5001 1056.2322,-162 1046.2322,-158.5001 1046.2322,-165.5001"/>
</g>
<!-- SignupcompanyComponent -->
<g id="node11" class="node">
<title>SignupcompanyComponent</title>
<polygon fill="#ffffb3" stroke="#000000" points="660.3257,-122 487.6743,-122 487.6743,-86 660.3257,-86 660.3257,-122"/>
<text text-anchor="middle" x="574" y="-99.8" font-family="Times,serif" font-size="14.00" fill="#000000">SignupcompanyComponent</text>
</g>
<!-- SignupcompanyComponent&#45;&gt;AppModule -->
<g id="edge11" class="edge">
<title>SignupcompanyComponent&#45;&gt;AppModule</title>
<path fill="none" stroke="#000000" d="M574,-122.2222C574,-140.8285 574,-167 574,-167 574,-167 1046.0047,-167 1046.0047,-167"/>
<polygon fill="#000000" stroke="#000000" points="1046.0047,-170.5001 1056.0047,-167 1046.0046,-163.5001 1046.0047,-170.5001"/>
</g>
<!-- VerifyEmailComponent -->
<g id="node12" class="node">
<title>VerifyEmailComponent</title>
<polygon fill="#ffffb3" stroke="#000000" points="469.8047,-122 318.1953,-122 318.1953,-86 469.8047,-86 469.8047,-122"/>
<text text-anchor="middle" x="394" y="-99.8" font-family="Times,serif" font-size="14.00" fill="#000000">VerifyEmailComponent</text>
</g>
<!-- VerifyEmailComponent&#45;&gt;AppModule -->
<g id="edge12" class="edge">
<title>VerifyEmailComponent&#45;&gt;AppModule</title>
<path fill="none" stroke="#000000" d="M394,-122.2228C394,-142.3652 394,-172 394,-172 394,-172 1046.3302,-172 1046.3302,-172"/>
<polygon fill="#000000" stroke="#000000" points="1046.3303,-175.5001 1056.3302,-172 1046.3302,-168.5001 1046.3303,-175.5001"/>
</g>
<!-- AppComponent  -->
<g id="node15" class="node">
<title>AppComponent </title>
<polygon fill="#80b1d3" stroke="#000000" points="1152.439,-252 1043.561,-252 1043.561,-216 1152.439,-216 1152.439,-252"/>
<text text-anchor="middle" x="1098" y="-229.8" font-family="Times,serif" font-size="14.00" fill="#000000">AppComponent </text>
</g>
<!-- AppModule&#45;&gt;AppComponent  -->
<g id="edge14" class="edge">
<title>AppModule&#45;&gt;AppComponent </title>
<path fill="none" stroke="#000000" stroke-dasharray="1,5" d="M1098,-187.1061C1098,-187.1061 1098,-205.991 1098,-205.991"/>
<polygon fill="#000000" stroke="#000000" points="1094.5001,-205.9909 1098,-215.991 1101.5001,-205.991 1094.5001,-205.9909"/>
</g>
<!-- AppRoutingModule -->
<g id="node14" class="node">
<title>AppRoutingModule</title>
<polygon fill="#8dd3c7" stroke="#000000" points="294.2744,-122 291.2744,-126 270.2744,-126 267.2744,-122 165.7256,-122 165.7256,-86 294.2744,-86 294.2744,-122"/>
<text text-anchor="middle" x="230" y="-99.8" font-family="Times,serif" font-size="14.00" fill="#000000">AppRoutingModule</text>
</g>
<!-- AppRoutingModule&#45;&gt;AppModule -->
<g id="edge13" class="edge">
<title>AppRoutingModule&#45;&gt;AppModule</title>
<path fill="none" stroke="#000000" d="M230,-122.0449C230,-143.6623 230,-177 230,-177 230,-177 1046.1346,-177 1046.1346,-177"/>
<polygon fill="#000000" stroke="#000000" points="1046.1346,-180.5001 1056.1346,-177 1046.1345,-173.5001 1046.1346,-180.5001"/>
</g>
<!-- AuthService -->
<g id="node16" class="node">
<title>AuthService</title>
<ellipse fill="#fdb462" stroke="#000000" cx="83" cy="-104" rx="59.1083" ry="18"/>
<text text-anchor="middle" x="83" y="-99.8" font-family="Times,serif" font-size="14.00" fill="#000000">AuthService</text>
</g>
<!-- AuthService&#45;&gt;AppModule -->
<g id="edge15" class="edge">
<title>AuthService&#45;&gt;AppModule</title>
<path fill="none" stroke="#000000" d="M83,-122.0908C83,-145.1328 83,-182 83,-182 83,-182 1046.3185,-182 1046.3185,-182"/>
<polygon fill="#000000" stroke="#000000" points="1046.3185,-185.5001 1056.3185,-182 1046.3185,-178.5001 1046.3185,-185.5001"/>
</g>
</g>
</svg>
